<?xml version="1.0" encoding="UTF-8" standalone="no"?>
<svg viewBox="0 0 448 448" version="1.1" id="svg2" sodipodi:docname="dice-six.svg" width="448" height="448" inkscape:version="1.3.2 (091e20ef0f, 2023-11-25)" xmlns:inkscape="http://www.inkscape.org/namespaces/inkscape" xmlns:sodipodi="http://sodipodi.sourceforge.net/DTD/sodipodi-0.dtd" xmlns="http://www.w3.org/2000/svg" xmlns:svg="http://www.w3.org/2000/svg">
  <sodipodi:namedview id="namedview2" pagecolor="#505050" bordercolor="#eeeeee" borderopacity="1" inkscape:showpageshadow="0" inkscape:pageopacity="0" inkscape:pagecheckerboard="0" inkscape:deskcolor="#d1d1d1" inkscape:zoom="0.54052734" inkscape:cx="452.33604" inkscape:cy="528.18789" inkscape:window-width="2560" inkscape:window-height="1341" inkscape:window-x="0" inkscape:window-y="0" inkscape:window-maximized="1" inkscape:current-layer="g2" />
  <!-- Font Awesome Pro 6.0.0-alpha2 by @fontawesome - https://fontawesome.com License - https://fontawesome.com/license (Commercial License) -->
  <defs id="defs1">
    <style id="style1">.fa-secondary{opacity:.4}</style>
  </defs>
  <g id="g2" transform="translate(679.67847,-184.08395)" style="opacity:1;mix-blend-mode:normal">
    <path d="m 384,32 h -320 c -35.375,0 -64,28.625 -64,64 v 320 c 0,35.375 28.625,64 64,64 h 320 c 35.375,0 64,-28.625 64,-64 v -320 c 0,-35.375 -28.625,-64 -64,-64 z m -256,352 c -17.625,0 -32,-14.375 -32,-32 0,-17.625 14.375,-32 32,-32 17.625,0 32,14.375 32,32 0,17.625 -14.375,32 -32,32 z m 0,-96 c -17.625,0 -32,-14.375 -32,-32 0,-17.625 14.375,-32 32,-32 17.625,0 32,14.375 32,32 0,17.625 -14.375,32 -32,32 z m 0,-96 c -17.625,0 -32,-14.375 -32,-32 0,-17.625 14.375,-32 32,-32 17.625,0 32,14.375 32,32 0,17.625 -14.375,32 -32,32 z m 192,192 c -17.625,0 -32,-14.375 -32,-32 0,-17.625 14.375,-32 32,-32 17.625,0 32,14.375 32,32 0,17.625 -14.375,32 -32,32 z m 0,-96 c -17.625,0 -32,-14.375 -32,-32 0,-17.625 14.375,-32 32,-32 17.625,0 32,14.375 32,32 0,17.625 -14.375,32 -32,32 z m 0,-96 c -17.625,0 -32,-14.375 -32,-32 0,-17.625 14.375,-32 32,-32 17.625,0 32,14.375 32,32 0,17.625 -14.375,32 -32,32 z" class="fa-secondary" id="path1" style="fill:#ffffff;fill-opacity:1;opacity:1" transform="translate(-679.67847,152.08395)" />
    <path d="m 128,320 c -17.625,0 -32,14.375 -32,32 0,17.625 14.375,32 32,32 17.625,0 32,-14.375 32,-32 0,-17.625 -14.375,-32 -32,-32 z m 192,-128 c 17.625,0 32,-14.375 32,-32 0,-17.625 -14.375,-32 -32,-32 -17.625,0 -32,14.375 -32,32 0,17.625 14.375,32 32,32 z m -192,32 c -17.625,0 -32,14.375 -32,32 0,17.625 14.375,32 32,32 17.625,0 32,-14.375 32,-32 0,-17.625 -14.375,-32 -32,-32 z m 192,96 c -17.625,0 -32,14.375 -32,32 0,17.625 14.375,32 32,32 17.625,0 32,-14.375 32,-32 0,-17.625 -14.375,-32 -32,-32 z m 0,-96 c -17.625,0 -32,14.375 -32,32 0,17.625 14.375,32 32,32 17.625,0 32,-14.375 32,-32 0,-17.625 -14.375,-32 -32,-32 z m -192,-96 c -17.625,0 -32,14.375 -32,32 0,17.625 14.375,32 32,32 17.625,0 32,-14.375 32,-32 0,-17.625 -14.375,-32 -32,-32 z" class="fa-primary" id="path2" style="fill:#ff0000" transform="translate(-679.67847,152.08395)" />
  </g>
</svg>
